<svg width="32" height="32" viewBox="0 0 32 32" fill="none" xmlns="http://www.w3.org/2000/svg">
<g clip-path="url(#clip0_508_2)">
<path d="M11.2578 30.3613C9.5293 29.873 8.22559 29.0674 7.34668 27.9443C6.47754 26.8311 6.04297 25.3564 6.04297 23.5205V20.6055C6.04297 18.2324 5.00781 17.0459 2.9375 17.0459V14.9219C5.00781 14.9219 6.04297 13.7402 6.04297 11.377V8.33008C6.0625 6.54297 6.49707 5.10254 7.34668 4.00879C8.20605 2.90527 9.50977 2.10449 11.2578 1.60645L11.8145 3.29102C9.77344 3.94531 8.75293 5.64941 8.75293 8.40332V11.3623C8.75293 13.5791 7.9375 15.1221 6.30664 15.9912C7.9375 16.8701 8.75293 18.4277 8.75293 20.6641V23.6816C8.78223 26.3672 9.80273 28.0322 11.8145 28.6768L11.2578 30.3613ZM14.1289 23.5791C14.1289 23.1104 14.2656 22.7197 14.5391 22.4072C14.8223 22.0947 15.2422 21.9385 15.7988 21.9385C16.3555 21.9385 16.7754 22.0947 17.0586 22.4072C17.3516 22.7197 17.498 23.1104 17.498 23.5791C17.498 24.0283 17.3516 24.4043 17.0586 24.707C16.7754 25.0098 16.3555 25.1611 15.7988 25.1611C15.2422 25.1611 14.8223 25.0098 14.5391 24.707C14.2656 24.4043 14.1289 24.0283 14.1289 23.5791ZM14.1436 10.6445C14.1436 10.1758 14.2803 9.78516 14.5537 9.47266C14.8369 9.16016 15.2568 9.00391 15.8135 9.00391C16.3701 9.00391 16.79 9.16016 17.0732 9.47266C17.3662 9.78516 17.5127 10.1758 17.5127 10.6445C17.5127 11.0938 17.3662 11.4697 17.0732 11.7725C16.79 12.0752 16.3701 12.2266 15.8135 12.2266C15.2568 12.2266 14.8369 12.0752 14.5537 11.7725C14.2803 11.4697 14.1436 11.0938 14.1436 10.6445ZM19.71 28.6768C21.6924 28.042 22.7178 26.4258 22.7861 23.8281V20.6055C22.7861 18.3496 23.6699 16.8115 25.4375 15.9912C23.6699 15.1904 22.7861 13.6523 22.7861 11.377V8.40332C22.7861 5.64941 21.7656 3.94531 19.7246 3.29102L20.2812 1.60645C22.0098 2.09473 23.3086 2.89063 24.1777 3.99414C25.0469 5.08789 25.4863 6.53809 25.4961 8.34473V11.4209C25.4961 13.7549 26.5312 14.9219 28.6016 14.9219V17.0459C26.5312 17.0459 25.4961 18.2324 25.4961 20.6055V23.5645C25.4961 25.4004 25.0518 26.8701 24.1631 27.9736C23.2842 29.0771 21.9902 29.873 20.2812 30.3613L19.71 28.6768Z" fill="#663399"/>
</g>
<defs>
<clipPath id="clip0_508_2">
<rect width="32" height="32" fill="white"/>
</clipPath>
</defs>
</svg>
