<svg id="Слой_1" data-name="Слой 1" xmlns="http://www.w3.org/2000/svg" viewBox="0 0 150 190">
    <defs>
        <style>.cls-1{fill-rule:evenodd;}</style>
    </defs>
    <title>Монтажная область 72</title>
    <path class="cls-1"  fill="#00e2f0"
          d="M126.42,54.15c-2.16,1.32-4.7,2.85-7.36,4.45a25.37,25.37,0,0,1,0,3.8l16.39-1.14s-2.84,14.36-12.57,13.1l-7.14-1a27.48,27.48,0,0,1-2,3L129,83.82S120.17,94,113,88.54c-1.9-1.45-4.2-3.21-6.56-5a38.11,38.11,0,0,1-3.9,2.37l9.28,11s-11.5,5.35-15.59-2.1c-.75-1.36-1.61-2.94-2.51-4.61-.92,5.41-6.63,11.56-6.63,11.56l2,45.81s-7.79,2.59-8.76-4.13c-.85-5.9-1.22-8.28-1.22-8.28L70.3,135s0,.5-1.11,7.88c-1.08,7.54-9.26,4.42-9.26,4.42l2.49-45.75S57,96.69,55.59,91.39c-.66,1.21-1.28,2.36-1.85,3.39-4.09,7.45-15.59,2.1-15.59,2.1l9.27-11a38,38,0,0,1-3.89-2.37c-2.36,1.82-4.66,3.58-6.56,5C29.76,94,20.9,83.82,20.9,83.82l15.27-7.4a27.48,27.48,0,0,1-2-3l-7.14,1c-9.73,1.26-12.57-13.1-12.57-13.1L30.87,62.4a25.37,25.37,0,0,1,0-3.8c-2.66-1.6-5.2-3.13-7.36-4.45C13.39,48,21.57,32.31,21.57,32.31l28.12,26C44.76,62.68,46.59,73,55,73a10.08,10.08,0,0,0,3.49-.59l0-.1c6.81-6.8,24.42-7.1,32.27-.23a9.33,9.33,0,0,0,4.17.92c8.4,0,10.22-10.33,5.3-14.74l28.12-26S136.54,48,126.42,54.15ZM66.6,53.62c0-12.62,18.21-10.39,16.8.85C82.05,65.29,66.6,66.41,66.6,53.62Z"/>
</svg>