<svg id="Слой_1" data-name="Слой 1" xmlns="http://www.w3.org/2000/svg" viewBox="0 0 150 190"><defs><style>.cls-1{fill-rule:evenodd;}</style></defs><title>Монтажная область 46</title><path class="cls-1" d="M111.68,79.89l8.62,7.89-.47,59.66-90.13-.63.2-59,10.76-8.63L42,46.31l70.42,2.84ZM35.35,96.61,36,141l77.69-.12-.3-42.81L75,122.92Zm12-44.13-1,43.38,28.08,19.43L104.92,96l1.3-40.51Zm8,17.78,0-6.75L98.7,65.82l-.76,5.82ZM96.09,85.9,55.31,83.73l0-5.86L97,79.21ZM79.78,98.45,55.19,97.12l0-6.69,26,2.11Z"/></svg>