<svg id="Слой_1" data-name="Слой 1" xmlns="http://www.w3.org/2000/svg" viewBox="0 0 150 190">
    <defs>
        <style>.cls-1{fill-rule:evenodd;}</style>
    </defs>
    <title>Монтажная область 12</title>
    <path class="cls-1" fill="#00e2f0"
          d="M78,127.06a42.27,42.27,0,0,0,6.69-5.5l7.88-.21,1.73,10.43,26.55,9.53-1.35,5.57-89.11.23-1.22-5.63,27.9-10,1.22-10.67c-6-8.6-7.3-19.07-7.3-35,0-12.84,8.2-24.47,24-24.47,13.4,0,21.14,8.13,23.16,19.9h4.65c-2.11-11.39-8.77-24-27.33-24s-32.66,13.7-28,37c-1,.27-4,1.06-5,1.3C37,77.15,46.27,51.76,75.53,51.76c24.23,0,31.37,17.84,33.26,30.83,3.5,3.93,3.8,15.3-.24,19.81a50.12,50.12,0,0,1-3.07,11.6c-5.63,2-11.26,4.61-34.43,4.61-7.38-9.52,11.69-10.74,11.69-5.5a54.84,54.84,0,0,0,7.65-.56c2.44-6.42,3-14.75,3-27.17a18.49,18.49,0,1,0-37,0c0,24,2.88,32.51,16.81,41.54ZM101.16,110s.56-2.32,1.15-5.7H97.58a53.62,53.62,0,0,1-1.72,7.24A49.25,49.25,0,0,0,101.16,110ZM63.23,126.5c-.17,3.5-.43,8.66-.52,10.73-.29,6.73,26.42,6.85,25.81-.91-.17-2.09-.45-7-.63-10.19a41.85,41.85,0,0,1-7.88,7L71.53,133A58,58,0,0,1,63.23,126.5Z"/>
</svg>