<svg xmlns="http://www.w3.org/2000/svg" width="527" height="527" fill="none">
    <path fill-rule="evenodd" clip-rule="evenodd"
          d="M527 0H0v527h527V0ZM259.56 110.79c1.54-.27 2.72-.47 3.27-.55 1.4-.3 10.2-.3 19.5-.1 18.1.4 28.7 2.1 44.1 7 11.6 3.7 32.7 14.5 42.4 21.8 12.3 9.1 26.1 22.6 29.5 28.9 2.7 4.8 3 6.2 3 14.3 0 7.8-.4 9.7-2.7 14-1.9 3.6-15.9 18.2-50 52.1-42.42 42.26-50.59 50.8-60 52.5-2.83.51-5.77.4-9.8.4-9.3 0-11.1-.3-16.3-2.7-16.1-7.6-26.1-26.1-22.8-42.4 2.4-12.3 4.4-15 30.3-41.1 13.3-13.3 23.8-24.6 23.4-25-.4-.5-7.1-.8-14.9-.8-13.3 0-14.7.2-23 3.2-4.8 1.7-11.3 4.6-14.5 6.4-7.3 4.4-21.7 18.8-26.1 26.1-8.9 15.3-12.3 35.7-8.6 52.4 9.6 43.8 53.8 69 96.2 54.9 8.3-2.8 19.7-9.4 25.1-14.6l3.4-3.2 28 27.9 27.9 27.9-6.5 6.1c-3.6 3.4-10.5 8.9-15.3 12.2-29 19.7-64.4 29.2-98.8 26.2-54.6-4.7-102.3-37.5-125.5-86.3-9.8-20.5-13.8-36.8-14.7-59.3-1.7-45.1 13.5-83.7 45.6-115.4 21.9-21.7 50.3-36.5 79.1-41.4 3.15-.48 6.37-1.04 8.73-1.45Z"
          fill="#fff"/>
</svg>